<?xml version="1.0" encoding="utf-8"?>
<!-- Generator: Adobe Illustrator 18.1.1, SVG Export Plug-In . SVG Version: 6.00 Build 0)  -->
<svg version="1.1" id="Checkit_Logo_copy" xmlns="http://www.w3.org/2000/svg" xmlns:xlink="http://www.w3.org/1999/xlink" x="0px"
	 y="0px" width="513px" height="513px" viewBox="-41 164.9 513 513" enable-background="new -41 164.9 513 513"
	 xml:space="preserve">
<g id="General_x5F_Checkit_x5F_logo_1_">
	<g>
		<g>
			<path fill="#FFFFFF" d="M7.5,609.9c8.4,0,16.1,4.2,20.7,11.2l0.6,0.9l12.1-7.8l-0.6-0.9c-7.2-11.1-19.5-17.8-32.7-17.8
				c-21.5,0-39,17.5-39,39s17.5,39,39,39c13.3,0,25.5-6.6,32.7-17.8l0.6-0.9L28.8,647l-0.6,0.9c-4.6,7-12.3,11.2-20.7,11.2
				c-13.6,0-24.6-11.1-24.6-24.6C-17.1,621-6.1,609.9,7.5,609.9z"/>
			<path fill="#FFFFFF" d="M121.6,620.3c-0.4-2.3-1.2-4.9-2.3-7.8c-1.1-2.9-2.9-5.6-5.1-8.1c-2.3-2.5-5.3-4.6-8.9-6.3
				c-3.6-1.7-8.3-2.5-13.8-2.5c-3.7,0-7,0.5-9.8,1.5s-5.1,2-7,3.2c-1.7,1-3,2-4,2.9v-28.7l-14.6-9.6v106.2h14.7v-44.2
				c0.1-1.1,0.4-2.7,0.9-4.7c0.5-1.9,1.4-3.8,2.8-5.7s3.4-3.5,6.1-4.8s6.4-2,10.9-2c3.7,0,6.7,0.7,8.8,2c2.2,1.4,3.8,3,4.9,4.9
				c1.1,1.9,1.8,4,2.2,6.1c0.3,2.2,0.5,4.1,0.5,5.6v42.8h14.6v-45.5c0-0.7-0.1-1.5-0.2-2.4C122,622.4,121.9,621.4,121.6,620.3z"/>
			<path fill="#FFFFFF" d="M203.3,613.8c-2.2-3.7-4.9-6.9-7.9-9.5c-3.1-2.7-6.6-4.8-10.5-6.3c-7.8-3-16.7-3-24.4,0
				c-3.9,1.5-7.4,3.6-10.5,6.3c-3.1,2.6-5.7,5.9-7.9,9.5c-2.2,3.7-3.8,7.6-4.7,11.8c-0.7,2.8-1.1,5.9-1.1,9.1c0,0.6,0,1.2,0.1,1.9
				c0.1,0.6,0.1,1.1,0.1,1.6c0.4,5,1.6,9.7,3.7,14c2.1,4.3,4.7,8.1,7.9,11.2c3.2,3.2,7,5.7,11.1,7.5c4.2,1.8,8.7,2.7,13.4,2.7
				c6.8,0,13.1-1.7,18.8-4.9c5.6-3.2,10.2-7.6,13.6-13l0.5-0.9l-12-7.8l-0.5,0.9c-2.2,3.5-5,6.3-8.5,8.3c-3.5,2.1-7.5,3.1-11.8,3.1
				c-2.8,0-5.4-0.6-7.9-1.7c-2.5-1.1-4.7-2.6-6.6-4.5c-1.9-1.9-3.5-4.1-4.8-6.8c-1.1-2.3-1.9-4.8-2.3-7.4h57.6l0.2-0.8
				c0.1-0.6,0.2-1.2,0.2-1.8v-1.8c0-3.2-0.4-6.3-1.1-9C207.1,621.5,205.5,617.5,203.3,613.8z M152.6,624.9c1.6-4.2,4.1-7.7,7.5-10.4
				c3.7-3,7.9-4.5,12.7-4.5c4.7,0,9,1.5,12.7,4.5c3.4,2.7,5.9,6.2,7.5,10.4H152.6z"/>
			<path fill="#FFFFFF" d="M257.9,609.9c8.4,0,16.1,4.2,20.7,11.2l0.6,0.9l12.1-7.8l-0.6-0.9c-7.2-11.1-19.5-17.8-32.7-17.8
				c-21.5,0-39,17.5-39,39s17.5,39,39,39c13.3,0,25.5-6.6,32.7-17.8l0.6-0.9l-12.1-7.8l-0.6,0.9c-4.6,7-12.3,11.2-20.7,11.2
				c-13.6,0-24.6-11.1-24.6-24.6C233.2,621,244.3,609.9,257.9,609.9z"/>
			<polygon fill="#FFFFFF" points="338.9,628.5 364,602.3 351.5,594.2 320.9,626 320.9,574.3 306.4,564.9 306.4,671.1 320.9,671.1 
				320.9,647.2 328.7,639.1 355.3,671.1 374.3,671.1 			"/>
		</g>
		<g>
			<rect x="393.2" y="598.4" fill="#C3C6C8" width="14.5" height="72.7"/>
			<path fill="#C3C6C8" d="M400.5,570.1c-2.5,0-4.7,0.9-6.5,2.6c-1.8,1.8-2.7,3.9-2.7,6.5c0,2.5,0.9,4.7,2.7,6.5
				c1.8,1.8,4,2.7,6.5,2.7s4.7-0.9,6.5-2.7c1.8-1.8,2.6-4,2.6-6.5s-0.9-4.7-2.7-6.5C405.2,571,403.1,570.1,400.5,570.1z"/>
			<path fill="#C3C6C8" d="M457.4,658.5l-0.9,0.3c-1.2,0.4-2.2,0.6-3,0.6s-1.7,0-2.7-0.1c-0.9-0.1-1.7-0.4-2.4-0.9
				c-2.6-1.8-4-6.5-4-13.9v-31.9h14.7v-14.3h-14.7V574l-14.3-9.3v33.5h-9v14.3h9v31.9c0,12.5,3.5,21.1,10.3,25.7
				c2.3,1.5,4.6,2.5,7.1,3c1.7,0.3,3.4,0.4,4.9,0.4c0.6,0,1.2,0,1.7-0.1c2-0.2,3.6-0.4,5-0.8c1.3-0.4,2.1-0.6,2.4-0.7l1-0.3
				L457.4,658.5z"/>
		</g>
	</g>
	<g>
		<path fill="#FFFFFF" d="M215.4,464.2c-65.7,0-119-53.3-119-119s53.3-119,119-119c41.8,0,78.6,21.6,99.8,54.2l48-31.2
			c-31.5-48.2-85.9-80.1-147.8-80.1c-97.3,0-176.2,78.9-176.2,176.2s78.9,176.2,176.2,176.2c61.9,0,116.3-32,147.8-80.3L315.1,410
			C293.9,442.6,257.2,464.2,215.4,464.2z"/>
		<path fill="#FFFFFF" d="M268.3,345.3c0-29.2-23.7-52.9-52.9-52.9s-52.9,23.7-52.9,52.9c0,29.2,23.7,52.9,52.9,52.9
			S268.3,374.5,268.3,345.3z"/>
	</g>
</g>
</svg>
